<svg width="25" height="25" viewBox="0 0 36 28" fill="none" xmlns="http://www.w3.org/2000/svg"><path d="M30.1167 2.75825C27.9 1.72491 25.5 0.974914 23 0.541581C22.9781 0.54088 22.9563 0.544993 22.9361 0.553632C22.916 0.562271 22.8979 0.575225 22.8833 0.591581C22.5833 1.14158 22.2333 1.85825 22 2.40825C19.3483 2.00825 16.6517 2.00825 14 2.40825C13.7667 1.84158 13.4167 1.14158 13.1 0.591581C13.0833 0.558248 13.0333 0.541581 12.9833 0.541581C10.4833 0.974914 8.09999 1.72491 5.86666 2.75825C5.84999 2.75825 5.83333 2.77491 5.81666 2.79158C1.28333 9.57491 0.0333253 16.1749 0.649992 22.7082C0.649992 22.7416 0.666659 22.7749 0.699992 22.7916C3.69999 24.9916 6.58333 26.3249 9.43333 27.2082C9.48333 27.2249 9.53332 27.2082 9.54999 27.1749C10.2167 26.2582 10.8167 25.2916 11.3333 24.2749C11.3667 24.2082 11.3333 24.1416 11.2667 24.1249C10.3167 23.7582 9.41666 23.3249 8.53333 22.8249C8.46666 22.7916 8.46666 22.6916 8.51666 22.6416C8.69999 22.5082 8.88332 22.3582 9.06666 22.2249C9.09999 22.1916 9.14999 22.1916 9.18333 22.2082C14.9167 24.8249 21.1 24.8249 26.7667 22.2082C26.8 22.1916 26.85 22.1916 26.8833 22.2249C27.0667 22.3749 27.25 22.5082 27.4333 22.6582C27.5 22.7082 27.5 22.8082 27.4167 22.8416C26.55 23.3582 25.6333 23.7749 24.6833 24.1416C24.6167 24.1582 24.6 24.2416 24.6167 24.2916C25.15 25.3082 25.75 26.2749 26.4 27.1916C26.45 27.2082 26.5 27.2249 26.55 27.2082C29.4167 26.3249 32.3 24.9916 35.3 22.7916C35.3333 22.7749 35.35 22.7416 35.35 22.7082C36.0833 15.1582 34.1333 8.60825 30.1833 2.79158C30.1667 2.77491 30.15 2.75825 30.1167 2.75825ZM12.2 18.7249C10.4833 18.7249 9.04999 17.1416 9.04999 15.1916C9.04999 13.2416 10.45 11.6582 12.2 11.6582C13.9667 11.6582 15.3667 13.2582 15.35 15.1916C15.35 17.1416 13.95 18.7249 12.2 18.7249ZM23.8167 18.7249C22.1 18.7249 20.6667 17.1416 20.6667 15.1916C20.6667 13.2416 22.0667 11.6582 23.8167 11.6582C25.5833 11.6582 26.9833 13.2582 26.9667 15.1916C26.9667 17.1416 25.5833 18.7249 23.8167 18.7249Z" fill="#ffffff"></path></svg>