<svg width="25" height="25" viewBox="0 0 34 33" fill="none" xmlns="http://www.w3.org/2000/svg"><path d="M17 0.208496C14.8113 0.208496 12.644 0.639592 10.6219 1.47717C8.59983 2.31475 6.76251 3.54241 5.21487 5.09005C2.08926 8.21566 0.333313 12.4549 0.333313 16.8752C0.333313 24.2418 5.11665 30.4918 11.7333 32.7085C12.5666 32.8418 12.8333 32.3252 12.8333 31.8752V29.0585C8.21665 30.0585 7.23331 26.8252 7.23331 26.8252C6.46665 24.8918 5.38331 24.3752 5.38331 24.3752C3.86665 23.3418 5.49998 23.3752 5.49998 23.3752C7.16665 23.4918 8.04998 25.0918 8.04998 25.0918C9.49998 27.6252 11.95 26.8752 12.9 26.4752C13.05 25.3918 13.4833 24.6585 13.95 24.2418C10.25 23.8252 6.36665 22.3918 6.36665 16.0418C6.36665 14.1918 6.99998 12.7085 8.08331 11.5252C7.91665 11.1085 7.33331 9.37516 8.24998 7.12516C8.24998 7.12516 9.64998 6.67516 12.8333 8.82516C14.15 8.4585 15.5833 8.27516 17 8.27516C18.4166 8.27516 19.85 8.4585 21.1666 8.82516C24.35 6.67516 25.75 7.12516 25.75 7.12516C26.6666 9.37516 26.0833 11.1085 25.9166 11.5252C27 12.7085 27.6333 14.1918 27.6333 16.0418C27.6333 22.4085 23.7333 23.8085 20.0166 24.2252C20.6166 24.7418 21.1666 25.7585 21.1666 27.3085V31.8752C21.1666 32.3252 21.4333 32.8585 22.2833 32.7085C28.9 30.4752 33.6666 24.2418 33.6666 16.8752C33.6666 14.6865 33.2356 12.5192 32.398 10.4971C31.5604 8.47501 30.3327 6.63769 28.7851 5.09005C27.2374 3.54241 25.4001 2.31475 23.378 1.47717C21.3559 0.639592 19.1887 0.208496 17 0.208496Z" fill="#ffffff"></path></svg>