<svg width="25" height="25" viewBox="0 0 30 31" fill="none" xmlns="http://www.w3.org/2000/svg"><path d="M26.6667 0.875C27.5507 0.875 28.3986 1.22619 29.0237 1.85131C29.6488 2.47643 30 3.32428 30 4.20833V27.5417C30 28.4257 29.6488 29.2736 29.0237 29.8987C28.3986 30.5238 27.5507 30.875 26.6667 30.875H3.33333C2.44928 30.875 1.60143 30.5238 0.976311 29.8987C0.351189 29.2736 0 28.4257 0 27.5417V4.20833C0 3.32428 0.351189 2.47643 0.976311 1.85131C1.60143 1.22619 2.44928 0.875 3.33333 0.875H26.6667ZM25.8333 26.7083V17.875C25.8333 16.434 25.2609 15.052 24.2419 14.0331C23.223 13.0141 21.841 12.4417 20.4 12.4417C18.9833 12.4417 17.3333 13.3083 16.5333 14.6083V12.7583H11.8833V26.7083H16.5333V18.4917C16.5333 17.2083 17.5667 16.1583 18.85 16.1583C19.4688 16.1583 20.0623 16.4042 20.4999 16.8418C20.9375 17.2793 21.1833 17.8728 21.1833 18.4917V26.7083H25.8333ZM6.46667 10.1417C7.20927 10.1417 7.92146 9.84667 8.44657 9.32157C8.97167 8.79646 9.26667 8.08427 9.26667 7.34167C9.26667 5.79167 8.01667 4.525 6.46667 4.525C5.71964 4.525 5.00321 4.82175 4.47498 5.34998C3.94675 5.87821 3.65 6.59464 3.65 7.34167C3.65 8.89167 4.91667 10.1417 6.46667 10.1417ZM8.78333 26.7083V12.7583H4.16667V26.7083H8.78333Z" fill="#ffffff"></path></svg>