<svg width="25" height="25" viewBox="0 0 36 29" fill="none" xmlns="http://www.w3.org/2000/svg"><path d="M35.4333 3.87484C34.15 4.45817 32.7667 4.8415 31.3333 5.02484C32.8 4.1415 33.9333 2.7415 34.4667 1.05817C33.0833 1.8915 31.55 2.47484 29.9333 2.80817C28.6167 1.37484 26.7667 0.541504 24.6667 0.541504C20.75 0.541504 17.55 3.7415 17.55 7.6915C17.55 8.25817 17.6167 8.80817 17.7333 9.32484C11.8 9.02484 6.51665 6.17484 2.99998 1.85817C2.38332 2.90817 2.03332 4.1415 2.03332 5.4415C2.03332 7.92484 3.28332 10.1248 5.21665 11.3748C4.03332 11.3748 2.93332 11.0415 1.96665 10.5415V10.5915C1.96665 14.0582 4.43332 16.9582 7.69998 17.6082C6.6512 17.8952 5.55014 17.9351 4.48332 17.7248C4.93599 19.1456 5.82255 20.3889 7.01834 21.2797C8.21414 22.1706 9.65906 22.6643 11.15 22.6915C8.6227 24.6922 5.48998 25.7737 2.26665 25.7582C1.69998 25.7582 1.13332 25.7248 0.56665 25.6582C3.73332 27.6915 7.49998 28.8748 11.5333 28.8748C24.6667 28.8748 31.8833 17.9748 31.8833 8.52484C31.8833 8.20817 31.8833 7.90817 31.8666 7.5915C33.2666 6.5915 34.4666 5.32484 35.4333 3.87484Z" fill="#ffffff"></path></svg>