<svg width="40" height="42" viewBox="0 0 40 42" fill="none" xmlns="http://www.w3.org/2000/svg">
<path d="M36.4588 17.5903H25.1996C18.0292 17.5903 11.1486 14.7412 6.07964 9.66848L4.83625 8.42509C4.62266 8.2115 4.2527 8.36407 4.2527 8.66538V12.9982C4.2527 13.1851 4.10013 13.3376 3.91324 13.3376H0.339453C0.152563 13.3376 0 13.1851 0 12.9982V0.926611C0 0.739721 0.152563 0.587158 0.339453 0.587158H12.411C12.5979 0.587158 12.7505 0.739721 12.7505 0.926611V4.49659C12.7505 4.68348 12.5979 4.83604 12.411 4.83604H8.07822C7.77309 4.83604 7.62434 5.20219 7.83793 5.4196C12.9107 10.4923 19.7874 13.3414 26.9579 13.3414H34.0559C34.3153 13.3414 34.4869 13.0592 34.3534 12.8342C31.5424 8.05513 26.3438 4.83986 20.4129 4.83986H17.3464C17.1595 4.83986 17.007 4.68729 17.007 4.5004V0.926611C17.007 0.739721 17.1595 0.587158 17.3464 0.587158H20.4129C28.9641 0.587158 36.2986 5.86966 39.3346 13.3414C39.3384 13.3567 39.346 13.3681 39.3498 13.3834C40.1622 15.401 38.6328 17.5941 36.4588 17.5941V17.5903Z" fill="#DEC9F4"/>
<path d="M36.4588 24.4097H25.1996C18.0292 24.4097 11.1486 27.2588 6.07964 32.3316L4.83625 33.575C4.62266 33.7885 4.2527 33.636 4.2527 33.3347V29.0019C4.2527 28.815 4.10013 28.6624 3.91324 28.6624H0.339453C0.152563 28.6624 0 28.815 0 29.0019V41.0734C0 41.2603 0.152563 41.4129 0.339453 41.4129H12.411C12.5979 41.4129 12.7505 41.2603 12.7505 41.0734V37.5035C12.7505 37.3166 12.5979 37.164 12.411 37.164H8.07822C7.77309 37.164 7.62434 36.7979 7.83793 36.5805C12.9107 31.5077 19.7874 28.6586 26.9579 28.6586H34.0559C34.3153 28.6586 34.4869 28.9409 34.3534 29.1659C31.5424 33.9449 26.3438 37.1602 20.4129 37.1602H17.3464C17.1595 37.1602 17.007 37.3128 17.007 37.4996V41.0696C17.007 41.2565 17.1595 41.4091 17.3464 41.4091H20.4129C28.9641 41.4091 36.2986 36.1266 39.3346 28.6548C39.3384 28.6395 39.346 28.6281 39.3498 28.6128C40.1622 26.5952 38.6328 24.4021 36.4588 24.4021V24.4097Z" fill="#DEC9F4"/>
</svg>
